<svg viewBox="0 0 330 200" xmlns="http://www.w3.org/2000/svg"><g><g><g><g><g><line x1="51.5625" y1="177" x2="46.5625" y2="177" style="visibility: inherit;" fill="rgb(0, 0, 0)" stroke="rgb(204, 204, 204)" stroke-width="1px"></line><line x1="51.5625" y1="162.25" x2="46.5625" y2="162.25" style="visibility: inherit;" fill="rgb(0, 0, 0)" stroke="rgb(204, 204, 204)" stroke-width="1px"></line><line x1="51.5625" y1="147.5" x2="46.5625" y2="147.5" style="visibility: inherit;" fill="rgb(0, 0, 0)" stroke="rgb(204, 204, 204)" stroke-width="1px"></line><line x1="51.5625" y1="132.75" x2="46.5625" y2="132.75" style="visibility: inherit;" fill="rgb(0, 0, 0)" stroke="rgb(204, 204, 204)" stroke-width="1px"></line><line x1="51.5625" y1="118.00000000000001" x2="46.5625" y2="118.00000000000001" style="visibility: inherit;" fill="rgb(0, 0, 0)" stroke="rgb(204, 204, 204)" stroke-width="1px"></line><line x1="51.5625" y1="103.24999999999999" x2="46.5625" y2="103.24999999999999" style="visibility: inherit;" fill="rgb(0, 0, 0)" stroke="rgb(204, 204, 204)" stroke-width="1px"></line><line x1="51.5625" y1="88.50000000000001" x2="46.5625" y2="88.50000000000001" style="visibility: inherit;" fill="rgb(0, 0, 0)" stroke="rgb(204, 204, 204)" stroke-width="1px"></line><line x1="51.5625" y1="73.75000000000001" x2="46.5625" y2="73.75000000000001" style="visibility: inherit;" fill="rgb(0, 0, 0)" stroke="rgb(204, 204, 204)" stroke-width="1px"></line><line x1="51.5625" y1="59.00000000000003" x2="46.5625" y2="59.00000000000003" style="visibility: inherit;" fill="rgb(0, 0, 0)" stroke="rgb(204, 204, 204)" stroke-width="1px"></line><line x1="51.5625" y1="44.25000000000002" x2="46.5625" y2="44.25000000000002" style="visibility: inherit;" fill="rgb(0, 0, 0)" stroke="rgb(204, 204, 204)" stroke-width="1px"></line><line x1="51.5625" y1="29.500000000000014" x2="46.5625" y2="29.500000000000014" style="visibility: inherit;" fill="rgb(0, 0, 0)" stroke="rgb(204, 204, 204)" stroke-width="1px"></line><line x1="51.5625" y1="14.750000000000007" x2="46.5625" y2="14.750000000000007" style="visibility: inherit;" fill="rgb(0, 0, 0)" stroke="rgb(204, 204, 204)" stroke-width="1px"></line><line x1="51.5625" y1="0" x2="46.5625" y2="0" style="visibility: inherit;" fill="rgb(0, 0, 0)" stroke="rgb(204, 204, 204)" stroke-width="1px"></line></g><g transform="translate(41.5625, 0)"><text x="0" y="177" dx="0em" dy="0.3em" style="text-anchor: end; visibility: hidden; font-family: Roboto, sans-serif; font-size: 12px; font-weight: 200;" fill="rgb(255, 255, 255)" stroke="none" stroke-width="1px">0.3</text><text x="0" y="162.25" dx="0em" dy="0.3em" style="text-anchor: end; visibility: inherit; font-family: Roboto, sans-serif; font-size: 12px; font-weight: 200;" fill="rgb(255, 255, 255)" stroke="none" stroke-width="1px">0.35</text><text x="0" y="147.5" dx="0em" dy="0.3em" style="text-anchor: end; visibility: hidden; font-family: Roboto, sans-serif; font-size: 12px; font-weight: 200;" fill="rgb(255, 255, 255)" stroke="none" stroke-width="1px">0.4</text><text x="0" y="132.75" dx="0em" dy="0.3em" style="text-anchor: end; visibility: inherit; font-family: Roboto, sans-serif; font-size: 12px; font-weight: 200;" fill="rgb(255, 255, 255)" stroke="none" stroke-width="1px">0.45</text><text x="0" y="118.00000000000001" dx="0em" dy="0.3em" style="text-anchor: end; visibility: hidden; font-family: Roboto, sans-serif; font-size: 12px; font-weight: 200;" fill="rgb(255, 255, 255)" stroke="none" stroke-width="1px">0.5</text><text x="0" y="103.24999999999999" dx="0em" dy="0.3em" style="text-anchor: end; visibility: inherit; font-family: Roboto, sans-serif; font-size: 12px; font-weight: 200;" fill="rgb(255, 255, 255)" stroke="none" stroke-width="1px">0.55</text><text x="0" y="88.50000000000001" dx="0em" dy="0.3em" style="text-anchor: end; visibility: hidden; font-family: Roboto, sans-serif; font-size: 12px; font-weight: 200;" fill="rgb(255, 255, 255)" stroke="none" stroke-width="1px">0.6</text><text x="0" y="73.75000000000001" dx="0em" dy="0.3em" style="text-anchor: end; visibility: inherit; font-family: Roboto, sans-serif; font-size: 12px; font-weight: 200;" fill="rgb(255, 255, 255)" stroke="none" stroke-width="1px">0.65</text><text x="0" y="59.00000000000003" dx="0em" dy="0.3em" style="text-anchor: end; visibility: hidden; font-family: Roboto, sans-serif; font-size: 12px; font-weight: 200;" fill="rgb(255, 255, 255)" stroke="none" stroke-width="1px">0.7</text><text x="0" y="44.25000000000002" dx="0em" dy="0.3em" style="text-anchor: end; visibility: inherit; font-family: Roboto, sans-serif; font-size: 12px; font-weight: 200;" fill="rgb(255, 255, 255)" stroke="none" stroke-width="1px">0.75</text><text x="0" y="29.500000000000014" dx="0em" dy="0.3em" style="text-anchor: end; visibility: hidden; font-family: Roboto, sans-serif; font-size: 12px; font-weight: 200;" fill="rgb(255, 255, 255)" stroke="none" stroke-width="1px">0.8</text><text x="0" y="14.750000000000007" dx="0em" dy="0.3em" style="text-anchor: end; visibility: inherit; font-family: Roboto, sans-serif; font-size: 12px; font-weight: 200;" fill="rgb(255, 255, 255)" stroke="none" stroke-width="1px">0.85</text><text x="0" y="0" dx="0em" dy="0.3em" style="text-anchor: end; visibility: hidden; font-family: Roboto, sans-serif; font-size: 12px; font-weight: 200;" fill="rgb(255, 255, 255)" stroke="none" stroke-width="1px">0.9</text></g><line x1="51.5625" y1="0" x2="51.5625" y2="177" fill="rgb(0, 0, 0)" stroke="rgb(204, 204, 204)" stroke-width="1px"></line></g></g><g transform="translate(51, 0)" clip-path="url(#clip_0)"><clipPath id="clip_0"><rect width="278" height="177"></rect></clipPath><g><g><g><line x1="0" y1="0" x2="0" y2="177" fill="rgb(0, 0, 0)" stroke="rgb(189, 189, 189)" stroke-width="1px" opacity="0.25"></line><line x1="23.203125" y1="0" x2="23.203125" y2="177" fill="rgb(0, 0, 0)" stroke="rgb(189, 189, 189)" stroke-width="1px" opacity="0.25"></line><line x1="46.40625" y1="0" x2="46.40625" y2="177" fill="rgb(0, 0, 0)" stroke="rgb(189, 189, 189)" stroke-width="1px" opacity="0.25"></line><line x1="69.609375" y1="0" x2="69.609375" y2="177" fill="rgb(0, 0, 0)" stroke="rgb(189, 189, 189)" stroke-width="1px" opacity="0.25"></line><line x1="92.8125" y1="0" x2="92.8125" y2="177" fill="rgb(0, 0, 0)" stroke="rgb(189, 189, 189)" stroke-width="1px" opacity="0.25"></line><line x1="116.015625" y1="0" x2="116.015625" y2="177" fill="rgb(0, 0, 0)" stroke="rgb(189, 189, 189)" stroke-width="1px" opacity="0.25"></line><line x1="139.21875" y1="0" x2="139.21875" y2="177" fill="rgb(0, 0, 0)" stroke="rgb(189, 189, 189)" stroke-width="1px" opacity="0.25"></line><line x1="162.421875" y1="0" x2="162.421875" y2="177" fill="rgb(0, 0, 0)" stroke="rgb(189, 189, 189)" stroke-width="1px" opacity="0.25"></line><line x1="185.625" y1="0" x2="185.625" y2="177" fill="rgb(0, 0, 0)" stroke="rgb(189, 189, 189)" stroke-width="1px" opacity="0.25"></line><line x1="208.828125" y1="0" x2="208.828125" y2="177" fill="rgb(0, 0, 0)" stroke="rgb(189, 189, 189)" stroke-width="1px" opacity="0.25"></line><line x1="232.03125" y1="0" x2="232.03125" y2="177" fill="rgb(0, 0, 0)" stroke="rgb(189, 189, 189)" stroke-width="1px" opacity="0.25"></line><line x1="255.234375" y1="0" x2="255.234375" y2="177" fill="rgb(0, 0, 0)" stroke="rgb(189, 189, 189)" stroke-width="1px" opacity="0.25"></line><line x1="278.4375" y1="0" x2="278.4375" y2="177" fill="rgb(0, 0, 0)" stroke="rgb(189, 189, 189)" stroke-width="1px" opacity="0.25"></line></g><g><line x1="0" y1="177" x2="278.4375" y2="177" fill="rgb(0, 0, 0)" stroke="rgb(189, 189, 189)" stroke-width="1px" opacity="0.25"></line><line x1="0" y1="162.25" x2="278.4375" y2="162.25" fill="rgb(0, 0, 0)" stroke="rgb(189, 189, 189)" stroke-width="1px" opacity="0.25"></line><line x1="0" y1="147.5" x2="278.4375" y2="147.5" fill="rgb(0, 0, 0)" stroke="rgb(189, 189, 189)" stroke-width="1px" opacity="0.25"></line><line x1="0" y1="132.75" x2="278.4375" y2="132.75" fill="rgb(0, 0, 0)" stroke="rgb(189, 189, 189)" stroke-width="1px" opacity="0.25"></line><line x1="0" y1="118.00000000000001" x2="278.4375" y2="118.00000000000001" fill="rgb(0, 0, 0)" stroke="rgb(189, 189, 189)" stroke-width="1px" opacity="0.25"></line><line x1="0" y1="103.24999999999999" x2="278.4375" y2="103.24999999999999" fill="rgb(0, 0, 0)" stroke="rgb(189, 189, 189)" stroke-width="1px" opacity="0.25"></line><line x1="0" y1="88.50000000000001" x2="278.4375" y2="88.50000000000001" fill="rgb(0, 0, 0)" stroke="rgb(189, 189, 189)" stroke-width="1px" opacity="0.25"></line><line x1="0" y1="73.75000000000001" x2="278.4375" y2="73.75000000000001" fill="rgb(0, 0, 0)" stroke="rgb(189, 189, 189)" stroke-width="1px" opacity="0.25"></line><line x1="0" y1="59.00000000000003" x2="278.4375" y2="59.00000000000003" fill="rgb(0, 0, 0)" stroke="rgb(189, 189, 189)" stroke-width="1px" opacity="0.25"></line><line x1="0" y1="44.25000000000002" x2="278.4375" y2="44.25000000000002" fill="rgb(0, 0, 0)" stroke="rgb(189, 189, 189)" stroke-width="1px" opacity="0.25"></line><line x1="0" y1="29.500000000000014" x2="278.4375" y2="29.500000000000014" fill="rgb(0, 0, 0)" stroke="rgb(189, 189, 189)" stroke-width="1px" opacity="0.25"></line><line x1="0" y1="14.750000000000007" x2="278.4375" y2="14.750000000000007" fill="rgb(0, 0, 0)" stroke="rgb(189, 189, 189)" stroke-width="1px" opacity="0.25"></line><line x1="0" y1="0" x2="278.4375" y2="0" fill="rgb(0, 0, 0)" stroke="rgb(189, 189, 189)" stroke-width="1px" opacity="0.25"></line></g></g></g><g><g><line x1="0" y1="265.5" x2="278.4375" y2="265.5" fill="rgb(0, 0, 0)" stroke="rgb(153, 153, 153)" stroke-width="1.5px"></line></g></g><g><g><line x1="23.203125" y1="0" x2="23.203125" y2="177" fill="rgb(0, 0, 0)" stroke="rgb(153, 153, 153)" stroke-width="1.5px"></line></g></g><g><g><g><g><g><path stroke="rgb(0, 119, 187)" stroke-width="2px" d="M27.84375,-18.18214506655926L32.484375,6.30986474241531L37.125,25.980648347121807L41.765625,44.24271316341362L46.40625,56.37508379960898L51.04687499999999,70.2032223863571L55.6875,81.50075435265995L60.328125,88.1078752661231L64.96875,95.81884182363117L69.609375,103.55484557917522L74.25,107.81749701431339L78.890625,114.23321768055946L83.53125,118.04424264580926L88.171875,121.61894045374225L92.8125,125.09175249088437L97.453125,126.66215298611394L102.09374999999999,131.0651858629106L106.73437500000001,132.68038585534183L111.375,134.07495839047857L116.015625,135.17397671631585L120.65625,139.66071396774115L125.296875,140.49340662348317L129.9375,143.9261138908988L134.578125,143.3006305598351L139.21875,143.04662144384864L143.85937500000003,144.58814712108594L148.5,144.33960996946786L153.140625,144.65147467946744L157.78125,144.5266467920891L162.421875,148.12947421131696L167.0625,150.46151102779206L171.703125,151.9772439321346L176.34375,150.6352596089478L180.984375,150.3090892858007L185.625,153.04419382214553L190.265625,153.46403519055795L194.90625,151.44381338645823L199.546875,151.31405983115025L204.18749999999997,149.41595611166417L208.828125,152.82188516646485L213.46875000000003,153.617378496254L218.109375,157.9828781159158L222.75,158.14853814076884L227.390625,157.2824242640519L232.03125,157.60704607542297L236.671875,156.69910974961664L241.3125,154.70605498346472L245.953125,156.5316359269435L250.59375,157.12510235714288" style="fill: none;" fill="none"></path></g><g><path stroke="rgb(255, 112, 67)" stroke-width="2px" d="M27.84375,-1.2826998233794904L32.484375,15.704944008467193L37.125,29.75198899801164L41.765625,41.44187736573276L46.40625,51.26933672253509L51.04687499999999,61.37438133071602L55.6875,71.98512821139076L60.328125,78.98329074268717L64.96875,86.817782757253L69.609375,93.85520027859566L74.25,98.49908328647948L78.890625,101.85073345403165L83.53125,106.50391370197478L88.171875,109.73289809933658L92.8125,113.11192235219733L97.453125,115.94169469697462L102.09374999999999,117.98597452861597L106.73437500000001,120.24797138590023L111.375,122.71564886445708L116.015625,124.22443360341033L120.65625,125.18119969980187L125.296875,126.95250539721991L129.9375,127.7050936760062L134.578125,128.35973638098076L139.21875,128.94815020679232L143.85937500000003,130.1181748260704L148.5,131.12118466397814L153.140625,132.29378526322276L157.78125,132.60076289354592L162.421875,133.37290575600935L167.0625,134.38731757427527L171.703125,135.13459894425918L176.34375,135.51532803295473L180.984375,136.15677423577566L185.625,136.36908930342474L190.265625,136.67502691816526L194.90625,136.52256776318706L199.546875,136.89622516373052L204.18749999999997,137.6752628512023L208.828125,137.16584836363694L213.46875000000003,137.5000127968006L218.109375,137.8721286665568L222.75,137.35458970127493L227.390625,137.99510861676433L232.03125,138.84250615388373L236.671875,138.88114164084473L241.3125,138.67366779929097L245.953125,138.7585803335064L250.59375,138.8250012198187" style="fill: none;" fill="none"></path></g><g><path stroke="rgb(204, 51, 17)" stroke-width="2px" d="M27.84375,-18.18214506655926L32.484375,6.30986474241531L37.125,25.980648347121807L41.765625,44.24271316341362L46.40625,56.37508379960898L51.04687499999999,70.2032223863571L55.6875,81.50075435265995L60.328125,88.1078752661231L64.96875,95.81884182363117L69.609375,103.55484557917522L74.25,107.81749701431339L78.890625,114.23321768055946L83.53125,118.04424264580926L88.171875,121.61894045374225L92.8125,125.09175249088437L97.453125,126.66215298611394L102.09374999999999,131.0651858629106L106.73437500000001,132.68038585534183L111.375,134.07495839047857L116.015625,135.17397671631585L120.65625,139.66071396774115L125.296875,140.49340662348317L129.9375,143.9261138908988L134.578125,143.3006305598351L139.21875,143.04662144384864L143.85937500000003,144.58814712108594L148.5,144.33960996946786L153.140625,144.65147467946744L157.78125,144.5266467920891L162.421875,148.12947421131696L167.0625,150.46151102779206L171.703125,151.9772439321346L176.34375,150.6352596089478L180.984375,150.3090892858007L185.625,153.04419382214553L190.265625,153.46403519055795L194.90625,151.44381338645823L199.546875,151.31405983115025L204.18749999999997,149.41595611166417L208.828125,152.82188516646485L213.46875000000003,153.617378496254L218.109375,157.9828781159158L222.75,158.14853814076884L227.390625,157.2824242640519L232.03125,157.60704607542297L236.671875,156.69910974961664L241.3125,154.70605498346472L245.953125,156.5316359269435L250.59375,157.12510235714288" style="fill: none;" fill="none"></path></g><g><path stroke="rgb(0, 119, 187)" stroke-width="2px" d="M27.84375,-1.2826998233794904L32.484375,15.704944008467193L37.125,29.75198899801164L41.765625,41.44187736573276L46.40625,51.26933672253509L51.04687499999999,61.37438133071602L55.6875,71.98512821139076L60.328125,78.98329074268717L64.96875,86.817782757253L69.609375,93.85520027859566L74.25,98.49908328647948L78.890625,101.85073345403165L83.53125,106.50391370197478L88.171875,109.73289809933658L92.8125,113.11192235219733L97.453125,115.94169469697462L102.09374999999999,117.98597452861597L106.73437500000001,120.24797138590023L111.375,122.71564886445708L116.015625,124.22443360341033L120.65625,125.18119969980187L125.296875,126.95250539721991L129.9375,127.7050936760062L134.578125,128.35973638098076L139.21875,128.94815020679232L143.85937500000003,130.1181748260704L148.5,131.12118466397814L153.140625,132.29378526322276L157.78125,132.60076289354592L162.421875,133.37290575600935L167.0625,134.38731757427527L171.703125,135.13459894425918L176.34375,135.51532803295473L180.984375,136.15677423577566L185.625,136.36908930342474L190.265625,136.67502691816526L194.90625,136.52256776318706L199.546875,136.89622516373052L204.18749999999997,137.6752628512023L208.828125,137.16584836363694L213.46875000000003,137.5000127968006L218.109375,137.8721286665568L222.75,137.35458970127493L227.390625,137.99510861676433L232.03125,138.84250615388373L236.671875,138.88114164084473L241.3125,138.67366779929097L245.953125,138.7585803335064L250.59375,138.8250012198187" style="fill: none;" fill="none"></path></g></g></g></g><g opacity="0.2"><g><g><g><path stroke="rgb(0, 119, 187)" stroke-width="2px" d="M27.84375,-1.0718224644660426L32.484375,29.82219415903094L37.125,49.11348986625672L41.765625,68.0856649875641L46.40625,73.15852004289627L51.04687499999999,89.97768181562424L55.6875,97.97266441583633L60.328125,97.85209524631502L64.96875,107.26872849464418L69.609375,115.08868622779846L74.25,114.1882770061493L78.890625,123.83585023880006L83.53125,123.75331389904022L88.171875,126.97678524255753L92.8125,130.29852125048637L97.453125,129.0170891880989L102.09374999999999,137.66861724853516L106.73437500000001,135.10293978452682L111.375,136.1666897237301L116.015625,136.82244393229485L120.65625,146.39067220687866L125.296875,141.74242916703224L129.9375,149.07513412833214L134.578125,142.36241000890732L139.21875,142.66560885310173L143.85937500000003,146.90043169260025L148.5,143.96680462360382L153.140625,145.11927145719528L157.78125,144.33940503001213L162.421875,153.53371414542198L167.0625,153.95956578850746L171.703125,154.25084310770035L176.34375,148.62228322029114L180.984375,149.8198338150978L185.625,157.14685055613518L190.265625,154.09379723668098L194.90625,148.41348069906235L199.546875,151.1194294989109L204.18749999999997,146.5688005387783L208.828125,157.93077874183655L213.46875000000003,154.8106184899807L218.109375,164.5311275422573L222.75,158.3970281779766L227.390625,155.98325344920158L232.03125,158.09397879242897L236.671875,155.33720526099205L241.3125,151.71647283434868L245.953125,159.27000734210014L250.59375,158.01530200242996" style="fill: none;" fill="none"></path></g><g><path stroke="rgb(255, 112, 67)" stroke-width="2px" d="M23.203125,-24.933563590049705L27.84375,12.907818436622666L32.484375,32.01308208703997L37.125,46.27131390571595L41.765625,56.70419561862948L46.40625,64.8642508983612L51.04687499999999,75.8247568011284L55.6875,87.45569902658463L60.328125,89.30422115325928L64.96875,98.45109033584595L69.609375,104.3474977016449L74.25,105.43963599205017L78.890625,106.86726498603821L83.53125,113.47456800937654L88.171875,114.57257914543152L92.8125,118.17807558178902L97.453125,120.18515574932098L102.09374999999999,121.05187523365021L106.73437500000001,123.64062207937242L111.375,126.41693952679636L116.015625,126.48752796649933L120.65625,126.61631736159325L125.296875,129.60942897200584L129.9375,128.83396717905998L134.578125,129.34169578552246L139.21875,129.83076843619347L143.85937500000003,131.8732087612152L148.5,132.62569788098335L153.140625,134.05268508195877L157.78125,133.06122916936874L162.421875,134.5311197936535L167.0625,135.90893509984016L171.703125,136.25552091002464L176.34375,136.0864216387272L180.984375,137.11894351243973L185.625,136.6875618994236L190.265625,137.13393333554268L194.90625,136.293879032135L199.546875,137.45671126246452L204.18749999999997,138.84381937980652L208.828125,136.40172663331032L213.46875000000003,138.0012594461441L218.109375,138.43030247092247L222.75,136.57828125357628L227.390625,138.95588698983192L232.03125,140.1136024594307L236.671875,138.93909487128258L241.3125,138.36245703697205L245.953125,138.88594913482666L250.59375,138.9246325492859" style="fill: none;" fill="none"></path></g><g><path stroke="rgb(204, 51, 17)" stroke-width="2px" d="M27.84375,-1.0718224644660426L32.484375,29.82219415903094L37.125,49.11348986625672L41.765625,68.0856649875641L46.40625,73.15852004289627L51.04687499999999,89.97768181562424L55.6875,97.97266441583633L60.328125,97.85209524631502L64.96875,107.26872849464418L69.609375,115.08868622779846L74.25,114.1882770061493L78.890625,123.83585023880006L83.53125,123.75331389904022L88.171875,126.97678524255753L92.8125,130.29852125048637L97.453125,129.0170891880989L102.09374999999999,137.66861724853516L106.73437500000001,135.10293978452682L111.375,136.1666897237301L116.015625,136.82244393229485L120.65625,146.39067220687866L125.296875,141.74242916703224L129.9375,149.07513412833214L134.578125,142.36241000890732L139.21875,142.66560885310173L143.85937500000003,146.90043169260025L148.5,143.96680462360382L153.140625,145.11927145719528L157.78125,144.33940503001213L162.421875,153.53371414542198L167.0625,153.95956578850746L171.703125,154.25084310770035L176.34375,148.62228322029114L180.984375,149.8198338150978L185.625,157.14685055613518L190.265625,154.09379723668098L194.90625,148.41348069906235L199.546875,151.1194294989109L204.18749999999997,146.5688005387783L208.828125,157.93077874183655L213.46875000000003,154.8106184899807L218.109375,164.5311275422573L222.75,158.3970281779766L227.390625,155.98325344920158L232.03125,158.09397879242897L236.671875,155.33720526099205L241.3125,151.71647283434868L245.953125,159.27000734210014L250.59375,158.01530200242996" style="fill: none;" fill="none"></path></g><g><path stroke="rgb(0, 119, 187)" stroke-width="2px" d="M23.203125,-24.933563590049705L27.84375,12.907818436622666L32.484375,32.01308208703997L37.125,46.27131390571595L41.765625,56.70419561862948L46.40625,64.8642508983612L51.04687499999999,75.8247568011284L55.6875,87.45569902658463L60.328125,89.30422115325928L64.96875,98.45109033584595L69.609375,104.3474977016449L74.25,105.43963599205017L78.890625,106.86726498603821L83.53125,113.47456800937654L88.171875,114.57257914543152L92.8125,118.17807558178902L97.453125,120.18515574932098L102.09374999999999,121.05187523365021L106.73437500000001,123.64062207937242L111.375,126.41693952679636L116.015625,126.48752796649933L120.65625,126.61631736159325L125.296875,129.60942897200584L129.9375,128.83396717905998L134.578125,129.34169578552246L139.21875,129.83076843619347L143.85937500000003,131.8732087612152L148.5,132.62569788098335L153.140625,134.05268508195877L157.78125,133.06122916936874L162.421875,134.5311197936535L167.0625,135.90893509984016L171.703125,136.25552091002464L176.34375,136.0864216387272L180.984375,137.11894351243973L185.625,136.6875618994236L190.265625,137.13393333554268L194.90625,136.293879032135L199.546875,137.45671126246452L204.18749999999997,138.84381937980652L208.828125,136.40172663331032L213.46875000000003,138.0012594461441L218.109375,138.43030247092247L222.75,136.57828125357628L227.390625,138.95588698983192L232.03125,140.1136024594307L236.671875,138.93909487128258L241.3125,138.36245703697205L245.953125,138.88594913482666L250.59375,138.9246325492859" style="fill: none;" fill="none"></path></g></g></g></g></g></g><g transform="translate(51, 177)" clip-path="url(#clip_1)"><clipPath id="clip_1"><rect width="278" height="23"></rect></clipPath><g><g><line x1="0" y1="0" x2="0" y2="5" style="visibility: inherit;" fill="rgb(0, 0, 0)" stroke="rgb(204, 204, 204)" stroke-width="1px"></line><line x1="23.203125" y1="0" x2="23.203125" y2="5" style="visibility: inherit;" fill="rgb(0, 0, 0)" stroke="rgb(204, 204, 204)" stroke-width="1px"></line><line x1="46.40625" y1="0" x2="46.40625" y2="5" style="visibility: inherit;" fill="rgb(0, 0, 0)" stroke="rgb(204, 204, 204)" stroke-width="1px"></line><line x1="69.609375" y1="0" x2="69.609375" y2="5" style="visibility: inherit;" fill="rgb(0, 0, 0)" stroke="rgb(204, 204, 204)" stroke-width="1px"></line><line x1="92.8125" y1="0" x2="92.8125" y2="5" style="visibility: inherit;" fill="rgb(0, 0, 0)" stroke="rgb(204, 204, 204)" stroke-width="1px"></line><line x1="116.015625" y1="0" x2="116.015625" y2="5" style="visibility: inherit;" fill="rgb(0, 0, 0)" stroke="rgb(204, 204, 204)" stroke-width="1px"></line><line x1="139.21875" y1="0" x2="139.21875" y2="5" style="visibility: inherit;" fill="rgb(0, 0, 0)" stroke="rgb(204, 204, 204)" stroke-width="1px"></line><line x1="162.421875" y1="0" x2="162.421875" y2="5" style="visibility: inherit;" fill="rgb(0, 0, 0)" stroke="rgb(204, 204, 204)" stroke-width="1px"></line><line x1="185.625" y1="0" x2="185.625" y2="5" style="visibility: inherit;" fill="rgb(0, 0, 0)" stroke="rgb(204, 204, 204)" stroke-width="1px"></line><line x1="208.828125" y1="0" x2="208.828125" y2="5" style="visibility: inherit;" fill="rgb(0, 0, 0)" stroke="rgb(204, 204, 204)" stroke-width="1px"></line><line x1="232.03125" y1="0" x2="232.03125" y2="5" style="visibility: inherit;" fill="rgb(0, 0, 0)" stroke="rgb(204, 204, 204)" stroke-width="1px"></line><line x1="255.234375" y1="0" x2="255.234375" y2="5" style="visibility: inherit;" fill="rgb(0, 0, 0)" stroke="rgb(204, 204, 204)" stroke-width="1px"></line><line x1="278.4375" y1="0" x2="278.4375" y2="5" style="visibility: inherit;" fill="rgb(0, 0, 0)" stroke="rgb(204, 204, 204)" stroke-width="1px"></line></g><g transform="translate(0, 8)"><text x="0" y="0" dx="0em" dy="0.95em" style="text-anchor: middle; visibility: hidden; font-family: Roboto, sans-serif; font-size: 12px; font-weight: 200;" fill="rgb(255, 255, 255)" stroke="none" stroke-width="1px">-5</text><text x="23.203125" y="0" dx="0em" dy="0.95em" style="text-anchor: middle; visibility: inherit; font-family: Roboto, sans-serif; font-size: 12px; font-weight: 200;" fill="rgb(255, 255, 255)" stroke="none" stroke-width="1px">0</text><text x="46.40625" y="0" dx="0em" dy="0.95em" style="text-anchor: middle; visibility: inherit; font-family: Roboto, sans-serif; font-size: 12px; font-weight: 200;" fill="rgb(255, 255, 255)" stroke="none" stroke-width="1px">5</text><text x="69.609375" y="0" dx="0em" dy="0.95em" style="text-anchor: middle; visibility: inherit; font-family: Roboto, sans-serif; font-size: 12px; font-weight: 200;" fill="rgb(255, 255, 255)" stroke="none" stroke-width="1px">10</text><text x="92.8125" y="0" dx="0em" dy="0.95em" style="text-anchor: middle; visibility: inherit; font-family: Roboto, sans-serif; font-size: 12px; font-weight: 200;" fill="rgb(255, 255, 255)" stroke="none" stroke-width="1px">15</text><text x="116.015625" y="0" dx="0em" dy="0.95em" style="text-anchor: middle; visibility: inherit; font-family: Roboto, sans-serif; font-size: 12px; font-weight: 200;" fill="rgb(255, 255, 255)" stroke="none" stroke-width="1px">20</text><text x="139.21875" y="0" dx="0em" dy="0.95em" style="text-anchor: middle; visibility: inherit; font-family: Roboto, sans-serif; font-size: 12px; font-weight: 200;" fill="rgb(255, 255, 255)" stroke="none" stroke-width="1px">25</text><text x="162.421875" y="0" dx="0em" dy="0.95em" style="text-anchor: middle; visibility: inherit; font-family: Roboto, sans-serif; font-size: 12px; font-weight: 200;" fill="rgb(255, 255, 255)" stroke="none" stroke-width="1px">30</text><text x="185.625" y="0" dx="0em" dy="0.95em" style="text-anchor: middle; visibility: inherit; font-family: Roboto, sans-serif; font-size: 12px; font-weight: 200;" fill="rgb(255, 255, 255)" stroke="none" stroke-width="1px">35</text><text x="208.828125" y="0" dx="0em" dy="0.95em" style="text-anchor: middle; visibility: inherit; font-family: Roboto, sans-serif; font-size: 12px; font-weight: 200;" fill="rgb(255, 255, 255)" stroke="none" stroke-width="1px">40</text><text x="232.03125" y="0" dx="0em" dy="0.95em" style="text-anchor: middle; visibility: inherit; font-family: Roboto, sans-serif; font-size: 12px; font-weight: 200;" fill="rgb(255, 255, 255)" stroke="none" stroke-width="1px">45</text><text x="255.234375" y="0" dx="0em" dy="0.95em" style="text-anchor: middle; visibility: inherit; font-family: Roboto, sans-serif; font-size: 12px; font-weight: 200;" fill="rgb(255, 255, 255)" stroke="none" stroke-width="1px">50</text><text x="278.4375" y="0" dx="0em" dy="0.95em" style="text-anchor: middle; visibility: hidden; font-family: Roboto, sans-serif; font-size: 12px; font-weight: 200;" fill="rgb(255, 255, 255)" stroke="none" stroke-width="1px">55</text></g><line x1="0" y1="0" x2="278.4375" y2="0" fill="rgb(0, 0, 0)" stroke="rgb(204, 204, 204)" stroke-width="1px"></line></g></g></g></g></svg>